<svg xmlns="http://www.w3.org/2000/svg" width="720" height="230" viewBox="0 0 720 230">
  <rect width="720" height="230" fill="#0d1117"/>
  <g font-family="DejaVu Sans, sans-serif" font-size="13" fill="#e6edf3">
    <rect x="20" y="90" width="150" height="50" rx="8" fill="#161b22" stroke="#30363d"/>
    <text x="40" y="112">synth.py</text><text x="30" y="130" fill="#8b949e">usage CSV / live CSV</text>
    <rect x="220" y="30" width="150" height="50" rx="8" fill="#161b22" stroke="#30363d"/>
    <text x="245" y="52">models.py</text><text x="232" y="70" fill="#8b949e">holt-winters + naive</text>
    <rect x="220" y="150" width="150" height="50" rx="8" fill="#161b22" stroke="#30363d"/>
    <text x="245" y="172">budget.py</text><text x="237" y="190" fill="#8b949e">P(over) + alerts</text>
    <rect x="420" y="90" width="130" height="50" rx="8" fill="#161b22" stroke="#1f6feb"/>
    <text x="460" y="112">cli.py</text><text x="437" y="130" fill="#8b949e">JSON reports</text>
    <rect x="590" y="90" width="110" height="50" rx="8" fill="#161b22" stroke="#30363d"/>
    <text x="618" y="112">CI + tests</text><text x="608" y="130" fill="#8b949e">19 tests, 3 pythons</text>
  </g>
  <g stroke="#8b949e" stroke-width="1.5" fill="none" marker-end="url(#a)">
    <line x1="170" y1="105" x2="218" y2="60"/><line x1="170" y1="125" x2="218" y2="170"/>
    <line x1="370" y1="55" x2="418" y2="105"/><line x1="370" y1="175" x2="418" y2="125"/>
    <line x1="550" y1="115" x2="588" y2="115"/>
  </g>
  <defs><marker id="a" markerWidth="8" markerHeight="8" refX="6" refY="3" orient="auto"><path d="M0,0 L6,3 L0,6" fill="none" stroke="#8b949e"/></marker></defs>
</svg>
